<?xml version="1.0" encoding="UTF-8" standalone="no"?>
<!DOCTYPE svg PUBLIC "-//W3C//DTD SVG 1.1//EN"
 "http://www.w3.org/Graphics/SVG/1.1/DTD/svg11.dtd">
<!-- Generated by graphviz version 2.43.0 (0)
 -->
<!-- Title: fpga_accelerator_top Pages: 1 -->
<svg width="2935pt" height="605pt"
 viewBox="0.00 0.00 2934.63 605.00" xmlns="http://www.w3.org/2000/svg" xmlns:xlink="http://www.w3.org/1999/xlink">
<g id="graph0" class="graph" transform="scale(1 1) rotate(0) translate(4 601)">
<title>fpga_accelerator_top</title>
<polygon fill="white" stroke="transparent" points="-4,4 -4,-601 2930.63,-601 2930.63,4 -4,4"/>
<text text-anchor="middle" x="1463.32" y="-7.8" font-family="Times,serif" font-size="14.00">fpga_accelerator_top</text>
<!-- n2 -->
<g id="node1" class="node">
<title>n2</title>
<polygon fill="none" stroke="black" points="1231.1,-505.54 1231.1,-520.46 1205.48,-531 1169.25,-531 1143.64,-520.46 1143.64,-505.54 1169.25,-495 1205.48,-495 1231.1,-505.54"/>
<text text-anchor="middle" x="1187.37" y="-509.3" font-family="Times,serif" font-size="14.00">can_id</text>
</g>
<!-- c30 -->
<g id="node22" class="node">
<title>c30</title>
<polygon fill="none" stroke="black" points="1350.21,-375.5 1350.21,-490.5 1681.21,-490.5 1681.21,-375.5 1350.21,-375.5"/>
<text text-anchor="middle" x="1396.21" y="-475.3" font-family="Times,serif" font-size="14.00">can_id</text>
<polyline fill="none" stroke="black" points="1350.21,-467.5 1442.21,-467.5 "/>
<text text-anchor="middle" x="1396.21" y="-452.3" font-family="Times,serif" font-size="14.00">clk</text>
<polyline fill="none" stroke="black" points="1350.21,-444.5 1442.21,-444.5 "/>
<text text-anchor="middle" x="1396.21" y="-429.3" font-family="Times,serif" font-size="14.00">payload_in</text>
<polyline fill="none" stroke="black" points="1350.21,-421.5 1442.21,-421.5 "/>
<text text-anchor="middle" x="1396.21" y="-406.3" font-family="Times,serif" font-size="14.00">rst</text>
<polyline fill="none" stroke="black" points="1350.21,-398.5 1442.21,-398.5 "/>
<text text-anchor="middle" x="1396.21" y="-383.3" font-family="Times,serif" font-size="14.00">valid_in</text>
<polyline fill="none" stroke="black" points="1442.21,-375.5 1442.21,-490.5 "/>
<text text-anchor="middle" x="1510.71" y="-436.8" font-family="Times,serif" font-size="14.00">can_i</text>
<text text-anchor="middle" x="1510.71" y="-421.8" font-family="Times,serif" font-size="14.00">can_packet_filter</text>
<polyline fill="none" stroke="black" points="1579.21,-375.5 1579.21,-490.5 "/>
<text text-anchor="middle" x="1630.21" y="-458.3" font-family="Times,serif" font-size="14.00">payload_out</text>
<polyline fill="none" stroke="black" points="1579.21,-433.5 1681.21,-433.5 "/>
<text text-anchor="middle" x="1630.21" y="-400.8" font-family="Times,serif" font-size="14.00">valid_out</text>
</g>
<!-- n2&#45;&gt;c30 -->
<g id="edge27" class="edge">
<title>n2:e&#45;&gt;c30:w</title>
<path fill="none" stroke="black" stroke-width="3" d="M1232.37,-513C1283.37,-513 1294.37,-483.24 1340.22,-479.41"/>
<polygon fill="black" stroke="black" stroke-width="3" points="1340.36,-482.9 1350.21,-479 1340.08,-475.91 1340.36,-482.9"/>
</g>
<!-- n3 -->
<g id="node2" class="node">
<title>n3</title>
<polygon fill="none" stroke="black" points="112.83,-462.54 112.83,-477.46 97.01,-488 74.64,-488 58.83,-477.46 58.83,-462.54 74.64,-452 97.01,-452 112.83,-462.54"/>
<text text-anchor="middle" x="85.83" y="-466.3" font-family="Times,serif" font-size="14.00">clk</text>
</g>
<!-- n3&#45;&gt;c30 -->
<g id="edge30" class="edge">
<title>n3:e&#45;&gt;c30:w</title>
<path fill="none" stroke="black" d="M113.83,-470C158.03,-470 164.08,-495.56 207.65,-503 705.33,-587.97 840.2,-457.74 1340.21,-456.02"/>
<polygon fill="black" stroke="black" points="1340.22,-459.52 1350.21,-456 1340.21,-452.52 1340.22,-459.52"/>
</g>
<!-- c33 -->
<g id="node24" class="node">
<title>c33</title>
<polygon fill="none" stroke="black" points="207.65,-265 207.65,-357 467.65,-357 467.65,-265 207.65,-265"/>
<text text-anchor="middle" x="251.65" y="-341.8" font-family="Times,serif" font-size="14.00">clk</text>
<polyline fill="none" stroke="black" points="207.65,-334 295.65,-334 "/>
<text text-anchor="middle" x="251.65" y="-318.8" font-family="Times,serif" font-size="14.00">rst</text>
<polyline fill="none" stroke="black" points="207.65,-311 295.65,-311 "/>
<text text-anchor="middle" x="251.65" y="-295.8" font-family="Times,serif" font-size="14.00">sample_in</text>
<polyline fill="none" stroke="black" points="207.65,-288 295.65,-288 "/>
<text text-anchor="middle" x="251.65" y="-272.8" font-family="Times,serif" font-size="14.00">valid_in</text>
<polyline fill="none" stroke="black" points="295.65,-265 295.65,-357 "/>
<text text-anchor="middle" x="332.65" y="-314.8" font-family="Times,serif" font-size="14.00">fir_i</text>
<text text-anchor="middle" x="332.65" y="-299.8" font-family="Times,serif" font-size="14.00">fir_filter</text>
<polyline fill="none" stroke="black" points="369.65,-265 369.65,-357 "/>
<text text-anchor="middle" x="418.65" y="-330.3" font-family="Times,serif" font-size="14.00">sample_out</text>
<polyline fill="none" stroke="black" points="369.65,-311 467.65,-311 "/>
<text text-anchor="middle" x="418.65" y="-284.3" font-family="Times,serif" font-size="14.00">valid_out</text>
</g>
<!-- n3&#45;&gt;c33 -->
<g id="edge31" class="edge">
<title>n3:e&#45;&gt;c33:w</title>
<path fill="none" stroke="black" d="M113.83,-470C179.29,-470 142.91,-358.73 197.63,-347"/>
<polygon fill="black" stroke="black" points="198.05,-350.47 207.65,-346 197.35,-343.51 198.05,-350.47"/>
</g>
<!-- c34 -->
<g id="node25" class="node">
<title>c34</title>
<polygon fill="none" stroke="black" points="217.65,-376 217.65,-422 457.65,-422 457.65,-376 217.65,-376"/>
<text text-anchor="middle" x="236.15" y="-406.8" font-family="Times,serif" font-size="14.00">clk</text>
<polyline fill="none" stroke="black" points="217.65,-399 254.65,-399 "/>
<text text-anchor="middle" x="236.15" y="-383.8" font-family="Times,serif" font-size="14.00">rst</text>
<polyline fill="none" stroke="black" points="254.65,-376 254.65,-422 "/>
<text text-anchor="middle" x="318.65" y="-402.8" font-family="Times,serif" font-size="14.00">orbit_i</text>
<text text-anchor="middle" x="318.65" y="-387.8" font-family="Times,serif" font-size="14.00">orbit_controller</text>
<polyline fill="none" stroke="black" points="382.65,-376 382.65,-422 "/>
<text text-anchor="middle" x="420.15" y="-395.3" font-family="Times,serif" font-size="14.00">sunlight</text>
</g>
<!-- n3&#45;&gt;c34 -->
<g id="edge32" class="edge">
<title>n3:e&#45;&gt;c34:w</title>
<path fill="none" stroke="black" d="M113.83,-470C162.91,-470 164.05,-418.79 206.59,-411.79"/>
<polygon fill="black" stroke="black" points="206.96,-415.27 216.65,-411 206.41,-408.29 206.96,-415.27"/>
</g>
<!-- c35 -->
<g id="node26" class="node">
<title>c35</title>
<polygon fill="none" stroke="black" points="2265.84,-415 2265.84,-507 2690.84,-507 2690.84,-415 2265.84,-415"/>
<text text-anchor="middle" x="2338.84" y="-491.8" font-family="Times,serif" font-size="14.00">clk</text>
<polyline fill="none" stroke="black" points="2265.84,-484 2411.84,-484 "/>
<text text-anchor="middle" x="2338.84" y="-468.8" font-family="Times,serif" font-size="14.00">rst</text>
<polyline fill="none" stroke="black" points="2265.84,-461 2411.84,-461 "/>
<text text-anchor="middle" x="2338.84" y="-445.8" font-family="Times,serif" font-size="14.00">sunlight</text>
<polyline fill="none" stroke="black" points="2265.84,-438 2411.84,-438 "/>
<text text-anchor="middle" x="2338.84" y="-422.8" font-family="Times,serif" font-size="14.00">workload_pending</text>
<polyline fill="none" stroke="black" points="2411.84,-415 2411.84,-507 "/>
<text text-anchor="middle" x="2480.34" y="-464.8" font-family="Times,serif" font-size="14.00">power_i</text>
<text text-anchor="middle" x="2480.34" y="-449.8" font-family="Times,serif" font-size="14.00">power_controller</text>
<polyline fill="none" stroke="black" points="2548.84,-415 2548.84,-507 "/>
<text text-anchor="middle" x="2619.84" y="-480.3" font-family="Times,serif" font-size="14.00">comms_power_en</text>
<polyline fill="none" stroke="black" points="2548.84,-461 2690.84,-461 "/>
<text text-anchor="middle" x="2619.84" y="-434.3" font-family="Times,serif" font-size="14.00">fpga_power_en</text>
</g>
<!-- n3&#45;&gt;c35 -->
<g id="edge33" class="edge">
<title>n3:e&#45;&gt;c35:w</title>
<path fill="none" stroke="black" d="M113.83,-470C163.32,-470 161.6,-511.85 207.65,-530 360.66,-590.32 407.12,-597 571.59,-597 571.59,-597 571.59,-597 1822.33,-597 2021.04,-597 2062.29,-499.42 2255.62,-496.09"/>
<polygon fill="black" stroke="black" points="2255.87,-499.59 2265.84,-496 2255.81,-492.59 2255.87,-499.59"/>
</g>
<!-- c39 -->
<g id="node27" class="node">
<title>c39</title>
<polygon fill="none" stroke="black" points="1374.21,-251 1374.21,-343 1657.21,-343 1657.21,-251 1374.21,-251"/>
<text text-anchor="middle" x="1409.71" y="-327.8" font-family="Times,serif" font-size="14.00">clk</text>
<polyline fill="none" stroke="black" points="1374.21,-320 1445.21,-320 "/>
<text text-anchor="middle" x="1409.71" y="-304.8" font-family="Times,serif" font-size="14.00">data_in</text>
<polyline fill="none" stroke="black" points="1374.21,-297 1445.21,-297 "/>
<text text-anchor="middle" x="1409.71" y="-281.8" font-family="Times,serif" font-size="14.00">rst</text>
<polyline fill="none" stroke="black" points="1374.21,-274 1445.21,-274 "/>
<text text-anchor="middle" x="1409.71" y="-258.8" font-family="Times,serif" font-size="14.00">valid_in</text>
<polyline fill="none" stroke="black" points="1445.21,-251 1445.21,-343 "/>
<text text-anchor="middle" x="1508.21" y="-300.8" font-family="Times,serif" font-size="14.00">rle_i</text>
<text text-anchor="middle" x="1508.21" y="-285.8" font-family="Times,serif" font-size="14.00">rle_compressor</text>
<polyline fill="none" stroke="black" points="1571.21,-251 1571.21,-343 "/>
<text text-anchor="middle" x="1614.21" y="-324.3" font-family="Times,serif" font-size="14.00">count_out</text>
<polyline fill="none" stroke="black" points="1571.21,-313 1657.21,-313 "/>
<text text-anchor="middle" x="1614.21" y="-293.8" font-family="Times,serif" font-size="14.00">valid_out</text>
<polyline fill="none" stroke="black" points="1571.21,-282 1657.21,-282 "/>
<text text-anchor="middle" x="1614.21" y="-262.8" font-family="Times,serif" font-size="14.00">value_out</text>
</g>
<!-- n3&#45;&gt;c39 -->
<g id="edge34" class="edge">
<title>n3:e&#45;&gt;c39:w</title>
<path fill="none" stroke="black" d="M113.83,-470C155.59,-470 165.91,-473.89 207.65,-475 323.17,-478.08 352.22,-480.3 467.65,-475 545.17,-471.44 564.5,-468.47 641.53,-459 812.47,-437.99 859.84,-450.41 1024.53,-400 1041.45,-394.82 1043.62,-388.21 1060.53,-383 1169.61,-349.4 1201.74,-362.44 1314.21,-343 1336.62,-339.13 1344.18,-333.79 1362.65,-332.36"/>
<polygon fill="black" stroke="black" points="1362.85,-335.86 1372.71,-332 1362.59,-328.86 1362.85,-335.86"/>
</g>
<!-- c40 -->
<g id="node28" class="node">
<title>c40</title>
<polygon fill="none" stroke="black" points="677.53,-166 677.53,-258 1024.53,-258 1024.53,-166 677.53,-166"/>
<text text-anchor="middle" x="733.03" y="-242.8" font-family="Times,serif" font-size="14.00">clk</text>
<polyline fill="none" stroke="black" points="677.53,-235 788.53,-235 "/>
<text text-anchor="middle" x="733.03" y="-219.8" font-family="Times,serif" font-size="14.00">packet_ready</text>
<polyline fill="none" stroke="black" points="677.53,-212 788.53,-212 "/>
<text text-anchor="middle" x="733.03" y="-196.8" font-family="Times,serif" font-size="14.00">rst</text>
<polyline fill="none" stroke="black" points="677.53,-189 788.53,-189 "/>
<text text-anchor="middle" x="733.03" y="-173.8" font-family="Times,serif" font-size="14.00">sunlight</text>
<polyline fill="none" stroke="black" points="788.53,-166 788.53,-258 "/>
<text text-anchor="middle" x="837.53" y="-215.8" font-family="Times,serif" font-size="14.00">scheduler_i</text>
<text text-anchor="middle" x="837.53" y="-200.8" font-family="Times,serif" font-size="14.00">scheduler</text>
<polyline fill="none" stroke="black" points="886.53,-166 886.53,-258 "/>
<text text-anchor="middle" x="955.53" y="-231.3" font-family="Times,serif" font-size="14.00">run_compression</text>
<polyline fill="none" stroke="black" points="886.53,-212 1024.53,-212 "/>
<text text-anchor="middle" x="955.53" y="-185.3" font-family="Times,serif" font-size="14.00">run_filter</text>
</g>
<!-- n3&#45;&gt;c40 -->
<g id="edge35" class="edge">
<title>n3:e&#45;&gt;c40:w</title>
<path fill="none" stroke="black" d="M113.83,-470C172.61,-470 597.53,-470.99 641.53,-432 701.39,-378.93 603.33,-258.48 667.38,-247.77"/>
<polygon fill="black" stroke="black" points="667.82,-251.24 677.53,-247 667.29,-244.26 667.82,-251.24"/>
</g>
<!-- n4 -->
<g id="node3" class="node">
<title>n4</title>
<polygon fill="none" stroke="black" points="2926.53,-480.54 2926.53,-495.46 2868.07,-506 2785.4,-506 2726.94,-495.46 2726.94,-480.54 2785.4,-470 2868.07,-470 2926.53,-480.54"/>
<text text-anchor="middle" x="2826.74" y="-484.3" font-family="Times,serif" font-size="14.00">comms_power_en</text>
</g>
<!-- n5 -->
<g id="node4" class="node">
<title>n5</title>
<polygon fill="none" stroke="black" points="1925.56,-290.54 1925.56,-305.46 1864.51,-316 1778.15,-316 1717.1,-305.46 1717.1,-290.54 1778.15,-280 1864.51,-280 1925.56,-290.54"/>
<text text-anchor="middle" x="1821.33" y="-294.3" font-family="Times,serif" font-size="14.00">compression_valid</text>
</g>
<!-- n6 -->
<g id="node5" class="node">
<title>n6</title>
<polygon fill="none" stroke="black" points="1886.27,-398.54 1886.27,-413.46 1848.23,-424 1794.43,-424 1756.39,-413.46 1756.39,-398.54 1794.43,-388 1848.23,-388 1886.27,-398.54"/>
<text text-anchor="middle" x="1821.33" y="-402.3" font-family="Times,serif" font-size="14.00">filter_valid</text>
</g>
<!-- n7 -->
<g id="node6" class="node">
<title>n7</title>
<polygon fill="none" stroke="black" points="1913.65,-454.54 1913.65,-469.46 1859.57,-480 1783.09,-480 1729.01,-469.46 1729.01,-454.54 1783.09,-444 1859.57,-444 1913.65,-454.54"/>
<text text-anchor="middle" x="1821.33" y="-458.3" font-family="Times,serif" font-size="14.00">filtered_payload</text>
</g>
<!-- n8 -->
<g id="node7" class="node">
<title>n8</title>
<polygon fill="none" stroke="black" points="635.72,-343.54 635.72,-358.46 598.74,-369 546.44,-369 509.46,-358.46 509.46,-343.54 546.44,-333 598.74,-333 635.72,-343.54"/>
<text text-anchor="middle" x="572.59" y="-347.3" font-family="Times,serif" font-size="14.00">fir_sample</text>
</g>
<!-- n9 -->
<g id="node8" class="node">
<title>n9</title>
<polygon fill="none" stroke="black" points="624.71,-289.54 624.71,-304.46 594.18,-315 551,-315 520.47,-304.46 520.47,-289.54 551,-279 594.18,-279 624.71,-289.54"/>
<text text-anchor="middle" x="572.59" y="-293.3" font-family="Times,serif" font-size="14.00">fir_valid</text>
</g>
<!-- n10 -->
<g id="node9" class="node">
<title>n10</title>
<polygon fill="none" stroke="black" points="2913.3,-426.54 2913.3,-441.46 2862.59,-452 2790.88,-452 2740.18,-441.46 2740.18,-426.54 2790.88,-416 2862.59,-416 2913.3,-426.54"/>
<text text-anchor="middle" x="2826.74" y="-430.3" font-family="Times,serif" font-size="14.00">fpga_power_en</text>
</g>
<!-- n11 -->
<g id="node10" class="node">
<title>n11</title>
<polygon fill="none" stroke="black" points="164,-53.54 164,-68.46 118.21,-79 53.44,-79 7.65,-68.46 7.65,-53.54 53.44,-43 118.21,-43 164,-53.54"/>
<text text-anchor="middle" x="85.83" y="-57.3" font-family="Times,serif" font-size="14.00">packet_ready</text>
</g>
<!-- c25 -->
<g id="node21" class="node">
<title>c25</title>
<polygon fill="none" stroke="black" points="1754.33,-123 1754.33,-169 1888.33,-169 1888.33,-123 1754.33,-123"/>
<text text-anchor="middle" x="1767.83" y="-153.8" font-family="Times,serif" font-size="14.00">A</text>
<polyline fill="none" stroke="black" points="1754.33,-146 1781.33,-146 "/>
<text text-anchor="middle" x="1767.83" y="-130.8" font-family="Times,serif" font-size="14.00">B</text>
<polyline fill="none" stroke="black" points="1781.33,-123 1781.33,-169 "/>
<text text-anchor="middle" x="1821.83" y="-149.8" font-family="Times,serif" font-size="14.00">$32</text>
<text text-anchor="middle" x="1821.83" y="-134.8" font-family="Times,serif" font-size="14.00">$logic_or</text>
<polyline fill="none" stroke="black" points="1862.33,-123 1862.33,-169 "/>
<text text-anchor="middle" x="1875.33" y="-142.3" font-family="Times,serif" font-size="14.00">Y</text>
</g>
<!-- n11&#45;&gt;c25 -->
<g id="edge4" class="edge">
<title>n11:e&#45;&gt;c25:w</title>
<path fill="none" stroke="black" d="M164.83,-61C255.61,-61 480.8,-23 571.59,-23 571.59,-23 571.59,-23 1188.37,-23 1410.72,-23 1465.95,-53.29 1681.21,-109 1710.46,-116.57 1717.91,-130.49 1743.15,-133.44"/>
<polygon fill="black" stroke="black" points="1743.15,-136.95 1753.33,-134 1743.54,-129.96 1743.15,-136.95"/>
</g>
<!-- n11&#45;&gt;c33 -->
<g id="edge5" class="edge">
<title>n11:e&#45;&gt;c33:w</title>
<path fill="none" stroke="black" d="M164.83,-61C258.45,-61 121.72,-259.53 197.35,-275.04"/>
<polygon fill="black" stroke="black" points="197.37,-278.56 207.65,-276 198.02,-271.59 197.37,-278.56"/>
</g>
<!-- n11&#45;&gt;c40 -->
<g id="edge6" class="edge">
<title>n11:e&#45;&gt;c40:w</title>
<path fill="none" stroke="black" d="M164.83,-61C400.55,-61 437.4,-219.42 667.49,-223.9"/>
<polygon fill="black" stroke="black" points="667.49,-227.4 677.53,-224 667.56,-220.4 667.49,-227.4"/>
</g>
<!-- n12 -->
<g id="node11" class="node">
<title>n12</title>
<polygon fill="none" stroke="black" points="1879.61,-344.54 1879.61,-359.46 1845.47,-370 1797.19,-370 1763.05,-359.46 1763.05,-344.54 1797.19,-334 1845.47,-334 1879.61,-344.54"/>
<text text-anchor="middle" x="1821.33" y="-348.3" font-family="Times,serif" font-size="14.00">rle_count</text>
</g>
<!-- n13 -->
<g id="node12" class="node">
<title>n13</title>
<polygon fill="none" stroke="black" points="1878.3,-236.54 1878.3,-251.46 1844.93,-262 1797.73,-262 1764.36,-251.46 1764.36,-236.54 1797.73,-226 1844.93,-226 1878.3,-236.54"/>
<text text-anchor="middle" x="1821.33" y="-240.3" font-family="Times,serif" font-size="14.00">rle_value</text>
</g>
<!-- n14 -->
<g id="node13" class="node">
<title>n14</title>
<polygon fill="none" stroke="black" points="112.83,-198.54 112.83,-213.46 97.01,-224 74.64,-224 58.83,-213.46 58.83,-198.54 74.64,-188 97.01,-188 112.83,-198.54"/>
<text text-anchor="middle" x="85.83" y="-202.3" font-family="Times,serif" font-size="14.00">rst</text>
</g>
<!-- n14&#45;&gt;c30 -->
<g id="edge9" class="edge">
<title>n14:e&#45;&gt;c30:w</title>
<path fill="none" stroke="black" d="M113.83,-206C155.87,-206 165.93,-212.83 207.65,-218 400.39,-241.87 449.29,-242.35 641.53,-270 941.6,-313.16 1035.57,-263.56 1314.21,-383 1328.86,-389.28 1330.32,-402.7 1340.43,-407.89"/>
<polygon fill="black" stroke="black" points="1339.7,-411.31 1350.21,-410 1341.18,-404.47 1339.7,-411.31"/>
</g>
<!-- n14&#45;&gt;c33 -->
<g id="edge10" class="edge">
<title>n14:e&#45;&gt;c33:w</title>
<path fill="none" stroke="black" d="M113.83,-206C152.83,-206 147.52,-241.36 171.65,-272 186.27,-290.56 181.98,-314.49 197.51,-321.19"/>
<polygon fill="black" stroke="black" points="197.19,-324.69 207.65,-323 198.42,-317.8 197.19,-324.69"/>
</g>
<!-- n14&#45;&gt;c34 -->
<g id="edge11" class="edge">
<title>n14:e&#45;&gt;c34:w</title>
<path fill="none" stroke="black" d="M113.83,-206C152.83,-206 151.51,-238.6 171.65,-272 198.06,-315.79 166.68,-377.8 206.65,-386.08"/>
<polygon fill="black" stroke="black" points="206.37,-389.56 216.65,-387 207.02,-382.59 206.37,-389.56"/>
</g>
<!-- n14&#45;&gt;c35 -->
<g id="edge12" class="edge">
<title>n14:e&#45;&gt;c35:w</title>
<path fill="none" stroke="black" d="M113.83,-206C163.56,-206 160.95,-162.11 207.65,-145 360.74,-88.93 408.55,-99 571.59,-99 571.59,-99 571.59,-99 852.03,-99 1221.75,-99 1320.33,-85.61 1681.21,-166 1697.68,-169.67 1700.89,-173.77 1717.21,-178 1808.36,-201.61 1845.48,-167.29 1925.45,-217 1948.09,-231.08 1942.18,-246.56 1961.45,-265 2077.29,-375.85 2100.99,-468.92 2255.47,-472.87"/>
<polygon fill="black" stroke="black" points="2255.8,-476.37 2265.84,-473 2255.89,-469.37 2255.8,-476.37"/>
</g>
<!-- n14&#45;&gt;c39 -->
<g id="edge13" class="edge">
<title>n14:e&#45;&gt;c39:w</title>
<path fill="none" stroke="black" d="M113.83,-206C216.7,-206 468.71,-137 571.59,-137 571.59,-137 571.59,-137 852.03,-137 954.86,-137 1228.84,-102.67 1314.21,-160 1361.95,-192.06 1317.69,-273.87 1362.51,-283.97"/>
<polygon fill="black" stroke="black" points="1362.41,-287.48 1372.71,-285 1363.11,-280.52 1362.41,-287.48"/>
</g>
<!-- n14&#45;&gt;c40 -->
<g id="edge14" class="edge">
<title>n14:e&#45;&gt;c40:w</title>
<path fill="none" stroke="black" d="M113.83,-206C360.95,-206 425.23,-200.16 667.35,-200"/>
<polygon fill="black" stroke="black" points="667.53,-203.5 677.53,-200 667.52,-196.5 667.53,-203.5"/>
</g>
<!-- n15 -->
<g id="node14" class="node">
<title>n15</title>
<polygon fill="none" stroke="black" points="1187.37,-259 1060.68,-241 1187.37,-223 1314.06,-241 1187.37,-259"/>
<text text-anchor="middle" x="1187.37" y="-237.3" font-family="Times,serif" font-size="14.00">run_compression</text>
</g>
<!-- c24 -->
<g id="node20" class="node">
<title>c24</title>
<polygon fill="none" stroke="black" points="1448.71,-176 1448.71,-222 1582.71,-222 1582.71,-176 1448.71,-176"/>
<text text-anchor="middle" x="1462.21" y="-206.8" font-family="Times,serif" font-size="14.00">A</text>
<polyline fill="none" stroke="black" points="1448.71,-199 1475.71,-199 "/>
<text text-anchor="middle" x="1462.21" y="-183.8" font-family="Times,serif" font-size="14.00">B</text>
<polyline fill="none" stroke="black" points="1475.71,-176 1475.71,-222 "/>
<text text-anchor="middle" x="1516.21" y="-202.8" font-family="Times,serif" font-size="14.00">$31</text>
<text text-anchor="middle" x="1516.21" y="-187.8" font-family="Times,serif" font-size="14.00">$logic_or</text>
<polyline fill="none" stroke="black" points="1556.71,-176 1556.71,-222 "/>
<text text-anchor="middle" x="1569.71" y="-195.3" font-family="Times,serif" font-size="14.00">Y</text>
</g>
<!-- n15&#45;&gt;c24 -->
<g id="edge16" class="edge">
<title>n15:e&#45;&gt;c24:w</title>
<path fill="none" stroke="black" d="M1314.21,-241C1371.46,-241 1385.34,-214.41 1437.51,-211.3"/>
<polygon fill="black" stroke="black" points="1437.82,-214.79 1447.71,-211 1437.62,-207.79 1437.82,-214.79"/>
</g>
<!-- n15&#45;&gt;c39 -->
<g id="edge17" class="edge">
<title>n15:e&#45;&gt;c39:w</title>
<path fill="none" stroke="black" d="M1314.21,-241C1338.06,-241 1343.74,-256.65 1362.63,-260.93"/>
<polygon fill="black" stroke="black" points="1362.4,-264.43 1372.71,-262 1363.14,-257.46 1362.4,-264.43"/>
</g>
<!-- n16 -->
<g id="node15" class="node">
<title>n16</title>
<polygon fill="none" stroke="black" points="1187.37,-205 1111.29,-187 1187.37,-169 1263.45,-187 1187.37,-205"/>
<text text-anchor="middle" x="1187.37" y="-183.3" font-family="Times,serif" font-size="14.00">run_filter</text>
</g>
<!-- n16&#45;&gt;c24 -->
<g id="edge19" class="edge">
<title>n16:e&#45;&gt;c24:w</title>
<path fill="none" stroke="black" d="M1264.37,-187C1342.35,-187 1364.36,-187 1437.54,-187"/>
<polygon fill="black" stroke="black" points="1437.71,-190.5 1447.71,-187 1437.71,-183.5 1437.71,-190.5"/>
</g>
<!-- n16&#45;&gt;c30 -->
<g id="edge20" class="edge">
<title>n16:e&#45;&gt;c30:w</title>
<path fill="none" stroke="black" d="M1264.37,-187C1289.56,-187 1299.17,-193.79 1314.21,-214 1358.81,-273.93 1280.08,-376.37 1339.87,-386.23"/>
<polygon fill="black" stroke="black" points="1339.98,-389.75 1350.21,-387 1340.5,-382.77 1339.98,-389.75"/>
</g>
<!-- n17 -->
<g id="node16" class="node">
<title>n17</title>
<polygon fill="none" stroke="black" points="171.48,-291.54 171.48,-306.46 121.3,-317 50.35,-317 0.17,-306.46 0.17,-291.54 50.35,-281 121.3,-281 171.48,-291.54"/>
<text text-anchor="middle" x="85.83" y="-295.3" font-family="Times,serif" font-size="14.00">sensor_sample</text>
</g>
<!-- n17&#45;&gt;c33 -->
<g id="edge21" class="edge">
<title>n17:e&#45;&gt;c33:w</title>
<path fill="none" stroke="black" stroke-width="3" d="M171.65,-299C183.65,-299 188.9,-299 197.53,-299"/>
<polygon fill="black" stroke="black" stroke-width="3" points="197.65,-302.5 207.65,-299 197.65,-295.5 197.65,-302.5"/>
</g>
<!-- n18 -->
<g id="node17" class="node">
<title>n18</title>
<polygon fill="none" stroke="black" points="572.59,-423 503.72,-405 572.59,-387 641.46,-405 572.59,-423"/>
<text text-anchor="middle" x="572.59" y="-401.3" font-family="Times,serif" font-size="14.00">sunlight</text>
</g>
<!-- n18&#45;&gt;c35 -->
<g id="edge23" class="edge">
<title>n18:e&#45;&gt;c35:w</title>
<path fill="none" stroke="black" d="M641.53,-405C837.18,-405 867.25,-509.63 1060.53,-540 1171.91,-557.5 1201.56,-544.69 1314.21,-540 1586.58,-528.66 1654.21,-516.24 1925.45,-489 2073.61,-474.12 2111.82,-450.11 2255.75,-449.04"/>
<polygon fill="black" stroke="black" points="2255.85,-452.54 2265.84,-449 2255.83,-445.54 2255.85,-452.54"/>
</g>
<!-- n18&#45;&gt;c40 -->
<g id="edge24" class="edge">
<title>n18:e&#45;&gt;c40:w</title>
<path fill="none" stroke="black" d="M641.53,-405C740.31,-405 587.12,-193.61 667.2,-177.92"/>
<polygon fill="black" stroke="black" points="667.88,-181.37 677.53,-177 667.25,-174.4 667.88,-181.37"/>
</g>
<!-- n19 -->
<g id="node18" class="node">
<title>n19</title>
<polygon fill="none" stroke="black" points="938.9,-365.54 938.9,-380.46 887.42,-391 814.63,-391 763.15,-380.46 763.15,-365.54 814.63,-355 887.42,-355 938.9,-365.54"/>
<text text-anchor="middle" x="851.03" y="-369.3" font-family="Times,serif" font-size="14.00">telemetry_byte</text>
</g>
<!-- x0 -->
<g id="node23" class="node">
<title>x0</title>
<path fill="none" stroke="black" d="M1157.87,-392C1157.87,-392 1216.87,-392 1216.87,-392 1222.87,-392 1228.87,-398 1228.87,-404 1228.87,-404 1228.87,-426 1228.87,-426 1228.87,-432 1222.87,-438 1216.87,-438 1216.87,-438 1157.87,-438 1157.87,-438 1151.87,-438 1145.87,-432 1145.87,-426 1145.87,-426 1145.87,-404 1145.87,-404 1145.87,-398 1151.87,-392 1157.87,-392"/>
<text text-anchor="middle" x="1187.37" y="-422.8" font-family="Times,serif" font-size="14.00">0 &#45;&gt; 63:8</text>
<polyline fill="none" stroke="black" points="1145.87,-415 1228.87,-415 "/>
<text text-anchor="middle" x="1187.37" y="-399.8" font-family="Times,serif" font-size="14.00">7:0 &#45; 7:0</text>
</g>
<!-- n19&#45;&gt;x0 -->
<g id="edge26" class="edge">
<title>n19:e&#45;&gt;x0:w</title>
<path fill="none" stroke="black" stroke-width="3" d="M940.03,-373C1028.32,-373 1050.89,-400.76 1134.18,-402.87"/>
<polygon fill="black" stroke="black" stroke-width="3" points="1134.33,-406.37 1144.37,-403 1134.41,-399.38 1134.33,-406.37"/>
</g>
<!-- n19&#45;&gt;c39 -->
<g id="edge25" class="edge">
<title>n19:e&#45;&gt;c39:w</title>
<path fill="none" stroke="black" stroke-width="3" d="M940.03,-373C994.63,-373 1006.63,-357.81 1060.53,-349 1195.21,-326.99 1231.09,-309.85 1362.65,-309.03"/>
<polygon fill="black" stroke="black" stroke-width="3" points="1362.72,-312.53 1372.71,-309 1362.7,-305.53 1362.72,-312.53"/>
</g>
<!-- n20 -->
<g id="node19" class="node">
<title>n20</title>
<polygon fill="none" stroke="black" points="2095.64,-256 1961.25,-238 2095.64,-220 2230.04,-238 2095.64,-256"/>
<text text-anchor="middle" x="2095.64" y="-234.3" font-family="Times,serif" font-size="14.00">workload_pending</text>
</g>
<!-- n20&#45;&gt;c35 -->
<g id="edge29" class="edge">
<title>n20:e&#45;&gt;c35:w</title>
<path fill="none" stroke="black" d="M2229.84,-238C2311.09,-238 2192.38,-409.49 2255.66,-424.9"/>
<polygon fill="black" stroke="black" points="2255.52,-428.4 2265.84,-426 2256.28,-421.44 2255.52,-428.4"/>
</g>
<!-- c24&#45;&gt;c25 -->
<g id="edge2" class="edge">
<title>c24:e&#45;&gt;c25:w</title>
<path fill="none" stroke="black" d="M1583.71,-199C1657.79,-199 1674.34,-161.6 1743.25,-158.24"/>
<polygon fill="black" stroke="black" points="1743.42,-161.74 1753.33,-158 1743.25,-154.74 1743.42,-161.74"/>
</g>
<!-- c25&#45;&gt;n20 -->
<g id="edge28" class="edge">
<title>c25:e&#45;&gt;n20:w</title>
<path fill="none" stroke="black" d="M1889.33,-146C1912.63,-146 1910.9,-165.79 1925.45,-184 1940.92,-203.37 1935.08,-229.33 1951.44,-236.25"/>
<polygon fill="black" stroke="black" points="1950.99,-239.72 1961.45,-238 1952.2,-232.83 1950.99,-239.72"/>
</g>
<!-- c30&#45;&gt;n6 -->
<g id="edge38" class="edge">
<title>c30:e&#45;&gt;n6:w</title>
<path fill="none" stroke="black" d="M1681.21,-404C1710.43,-404 1720.2,-405.57 1745.01,-405.93"/>
<polygon fill="black" stroke="black" points="1745.31,-409.43 1755.33,-406 1745.35,-402.43 1745.31,-409.43"/>
</g>
<!-- c30&#45;&gt;n7 -->
<g id="edge39" class="edge">
<title>c30:e&#45;&gt;n7:w</title>
<path fill="none" stroke="black" stroke-width="3" d="M1681.21,-462C1697.87,-462 1704.37,-462 1717.22,-462"/>
<polygon fill="black" stroke="black" stroke-width="3" points="1717.33,-465.5 1727.33,-462 1717.33,-458.5 1717.33,-465.5"/>
</g>
<!-- x0&#45;&gt;c30 -->
<g id="edge1" class="edge">
<title>x0:e&#45;&gt;c30:w</title>
<path fill="none" stroke="black" stroke-width="3" d="M1242.55,-415.33C1282.67,-417.56 1298,-430.48 1338.18,-432.68"/>
<polygon fill="none" stroke="black" stroke-width="3" points="1242.37,-415.32 1236.26,-419.16 1230.37,-415 1236.47,-411.16 1242.37,-415.32"/>
<polygon fill="none" stroke="black" stroke-width="3" points="1338.22,-432.68 1344.32,-428.84 1350.21,-433 1344.11,-436.84 1338.22,-432.68"/>
</g>
<!-- c33&#45;&gt;n8 -->
<g id="edge40" class="edge">
<title>c33:e&#45;&gt;n8:w</title>
<path fill="none" stroke="black" stroke-width="3" d="M467.65,-334C483.35,-334 487.52,-344.8 498.53,-349.18"/>
<polygon fill="black" stroke="black" stroke-width="3" points="498.13,-352.66 508.59,-351 499.37,-345.78 498.13,-352.66"/>
</g>
<!-- c33&#45;&gt;n9 -->
<g id="edge41" class="edge">
<title>c33:e&#45;&gt;n9:w</title>
<path fill="none" stroke="black" d="M467.65,-288C487.24,-288 494,-294.29 509.38,-296.35"/>
<polygon fill="black" stroke="black" points="509.39,-299.86 519.59,-297 509.83,-292.87 509.39,-299.86"/>
</g>
<!-- c34&#45;&gt;n18 -->
<g id="edge22" class="edge">
<title>c34:e&#45;&gt;n18:w</title>
<path fill="none" stroke="black" d="M458.65,-399C474.89,-399 481.07,-402.89 493.38,-404.4"/>
<polygon fill="black" stroke="black" points="493.47,-407.91 503.65,-405 493.87,-400.93 493.47,-407.91"/>
</g>
<!-- c35&#45;&gt;n4 -->
<g id="edge36" class="edge">
<title>c35:e&#45;&gt;n4:w</title>
<path fill="none" stroke="black" d="M2690.84,-484C2702.91,-484 2708.07,-486.25 2716.69,-487.38"/>
<polygon fill="black" stroke="black" points="2716.64,-490.88 2726.84,-488 2717.07,-483.89 2716.64,-490.88"/>
</g>
<!-- c35&#45;&gt;n10 -->
<g id="edge3" class="edge">
<title>c35:e&#45;&gt;n10:w</title>
<path fill="none" stroke="black" d="M2690.84,-438C2708.36,-438 2714.99,-435.31 2728.6,-434.34"/>
<polygon fill="black" stroke="black" points="2728.86,-437.83 2738.74,-434 2728.62,-430.84 2728.86,-437.83"/>
</g>
<!-- c39&#45;&gt;n5 -->
<g id="edge37" class="edge">
<title>c39:e&#45;&gt;n5:w</title>
<path fill="none" stroke="black" d="M1658.71,-298C1680.85,-298 1688.85,-298 1706.8,-298"/>
<polygon fill="black" stroke="black" points="1707.21,-301.5 1717.21,-298 1707.21,-294.5 1707.21,-301.5"/>
</g>
<!-- c39&#45;&gt;n12 -->
<g id="edge7" class="edge">
<title>c39:e&#45;&gt;n12:w</title>
<path fill="none" stroke="black" stroke-width="3" d="M1658.71,-328C1702.29,-328 1713.41,-348.4 1751.91,-351.58"/>
<polygon fill="black" stroke="black" stroke-width="3" points="1752.2,-355.1 1762.33,-352 1752.48,-348.1 1752.2,-355.1"/>
</g>
<!-- c39&#45;&gt;n13 -->
<g id="edge8" class="edge">
<title>c39:e&#45;&gt;n13:w</title>
<path fill="none" stroke="black" stroke-width="3" d="M1658.71,-266C1702.51,-266 1714.09,-247.3 1752.85,-244.38"/>
<polygon fill="black" stroke="black" stroke-width="3" points="1753.46,-247.86 1763.33,-244 1753.21,-240.87 1753.46,-247.86"/>
</g>
<!-- c40&#45;&gt;n15 -->
<g id="edge15" class="edge">
<title>c40:e&#45;&gt;n15:w</title>
<path fill="none" stroke="black" d="M1024.53,-235C1036.69,-235 1041.73,-238.38 1050.34,-240.06"/>
<polygon fill="black" stroke="black" points="1050.25,-243.57 1060.53,-241 1050.89,-236.6 1050.25,-243.57"/>
</g>
<!-- c40&#45;&gt;n16 -->
<g id="edge18" class="edge">
<title>c40:e&#45;&gt;n16:w</title>
<path fill="none" stroke="black" d="M1024.53,-189C1059.11,-189 1070.17,-187.36 1100.34,-187.05"/>
<polygon fill="black" stroke="black" points="1100.39,-190.55 1110.37,-187 1100.35,-183.55 1100.39,-190.55"/>
</g>
</g>
</svg>
