<?xml version="1.0" encoding="UTF-8" standalone="no"?>
<!DOCTYPE svg PUBLIC "-//W3C//DTD SVG 1.1//EN"
 "http://www.w3.org/Graphics/SVG/1.1/DTD/svg11.dtd">
<!-- Generated by graphviz version 2.43.0 (0)
 -->
<!-- Title: fpga_accelerator_top Pages: 1 -->
<svg width="3423pt" height="620pt"
 viewBox="0.00 0.00 3422.63 619.68" xmlns="http://www.w3.org/2000/svg" xmlns:xlink="http://www.w3.org/1999/xlink">
<g id="graph0" class="graph" transform="scale(1 1) rotate(0) translate(4 615.68)">
<title>fpga_accelerator_top</title>
<polygon fill="white" stroke="transparent" points="-4,4 -4,-615.68 3418.63,-615.68 3418.63,4 -4,4"/>
<text text-anchor="middle" x="1707.32" y="-7.8" font-family="Times,serif" font-size="14.00">fpga_accelerator_top</text>
<!-- n2 -->
<g id="node1" class="node">
<title>n2</title>
<polygon fill="none" stroke="black" points="1719.1,-505.54 1719.1,-520.46 1693.48,-531 1657.25,-531 1631.64,-520.46 1631.64,-505.54 1657.25,-495 1693.48,-495 1719.1,-505.54"/>
<text text-anchor="middle" x="1675.37" y="-509.3" font-family="Times,serif" font-size="14.00">can_id</text>
</g>
<!-- c30 -->
<g id="node22" class="node">
<title>c30</title>
<polygon fill="none" stroke="black" points="1838.21,-375.5 1838.21,-490.5 2169.21,-490.5 2169.21,-375.5 1838.21,-375.5"/>
<text text-anchor="middle" x="1884.21" y="-475.3" font-family="Times,serif" font-size="14.00">can_id</text>
<polyline fill="none" stroke="black" points="1838.21,-467.5 1930.21,-467.5 "/>
<text text-anchor="middle" x="1884.21" y="-452.3" font-family="Times,serif" font-size="14.00">clk</text>
<polyline fill="none" stroke="black" points="1838.21,-444.5 1930.21,-444.5 "/>
<text text-anchor="middle" x="1884.21" y="-429.3" font-family="Times,serif" font-size="14.00">payload_in</text>
<polyline fill="none" stroke="black" points="1838.21,-421.5 1930.21,-421.5 "/>
<text text-anchor="middle" x="1884.21" y="-406.3" font-family="Times,serif" font-size="14.00">rst</text>
<polyline fill="none" stroke="black" points="1838.21,-398.5 1930.21,-398.5 "/>
<text text-anchor="middle" x="1884.21" y="-383.3" font-family="Times,serif" font-size="14.00">valid_in</text>
<polyline fill="none" stroke="black" points="1930.21,-375.5 1930.21,-490.5 "/>
<text text-anchor="middle" x="1998.71" y="-436.8" font-family="Times,serif" font-size="14.00">can_i</text>
<text text-anchor="middle" x="1998.71" y="-421.8" font-family="Times,serif" font-size="14.00">can_packet_filter</text>
<polyline fill="none" stroke="black" points="2067.21,-375.5 2067.21,-490.5 "/>
<text text-anchor="middle" x="2118.21" y="-458.3" font-family="Times,serif" font-size="14.00">payload_out</text>
<polyline fill="none" stroke="black" points="2067.21,-433.5 2169.21,-433.5 "/>
<text text-anchor="middle" x="2118.21" y="-400.8" font-family="Times,serif" font-size="14.00">valid_out</text>
</g>
<!-- n2&#45;&gt;c30 -->
<g id="edge27" class="edge">
<title>n2:e&#45;&gt;c30:w</title>
<path fill="none" stroke="black" stroke-width="3" d="M1720.37,-513C1771.37,-513 1782.37,-483.24 1828.22,-479.41"/>
<polygon fill="black" stroke="black" stroke-width="3" points="1828.36,-482.9 1838.21,-479 1828.08,-475.91 1828.36,-482.9"/>
</g>
<!-- n3 -->
<g id="node2" class="node">
<title>n3</title>
<polygon fill="none" stroke="black" points="112.83,-462.54 112.83,-477.46 97.01,-488 74.64,-488 58.83,-477.46 58.83,-462.54 74.64,-452 97.01,-452 112.83,-462.54"/>
<text text-anchor="middle" x="85.83" y="-466.3" font-family="Times,serif" font-size="14.00">clk</text>
</g>
<!-- n3&#45;&gt;c30 -->
<g id="edge30" class="edge">
<title>n3:e&#45;&gt;c30:w</title>
<path fill="none" stroke="black" d="M113.83,-470C158.03,-470 164.08,-495.56 207.65,-503 611.53,-571.95 720.03,-516.56 1129.53,-503 1441.63,-492.66 1520.86,-456.78 1828.12,-456.01"/>
<polygon fill="black" stroke="black" points="1828.22,-459.51 1838.21,-456 1828.21,-452.51 1828.22,-459.51"/>
</g>
<!-- c33 -->
<g id="node24" class="node">
<title>c33</title>
<polygon fill="none" stroke="black" points="451.65,-265 451.65,-357 711.65,-357 711.65,-265 451.65,-265"/>
<text text-anchor="middle" x="495.65" y="-341.8" font-family="Times,serif" font-size="14.00">clk</text>
<polyline fill="none" stroke="black" points="451.65,-334 539.65,-334 "/>
<text text-anchor="middle" x="495.65" y="-318.8" font-family="Times,serif" font-size="14.00">rst</text>
<polyline fill="none" stroke="black" points="451.65,-311 539.65,-311 "/>
<text text-anchor="middle" x="495.65" y="-295.8" font-family="Times,serif" font-size="14.00">sample_in</text>
<polyline fill="none" stroke="black" points="451.65,-288 539.65,-288 "/>
<text text-anchor="middle" x="495.65" y="-272.8" font-family="Times,serif" font-size="14.00">valid_in</text>
<polyline fill="none" stroke="black" points="539.65,-265 539.65,-357 "/>
<text text-anchor="middle" x="576.65" y="-314.8" font-family="Times,serif" font-size="14.00">fir_i</text>
<text text-anchor="middle" x="576.65" y="-299.8" font-family="Times,serif" font-size="14.00">fir_filter</text>
<polyline fill="none" stroke="black" points="613.65,-265 613.65,-357 "/>
<text text-anchor="middle" x="662.65" y="-330.3" font-family="Times,serif" font-size="14.00">sample_out</text>
<polyline fill="none" stroke="black" points="613.65,-311 711.65,-311 "/>
<text text-anchor="middle" x="662.65" y="-284.3" font-family="Times,serif" font-size="14.00">valid_out</text>
</g>
<!-- n3&#45;&gt;c33 -->
<g id="edge31" class="edge">
<title>n3:e&#45;&gt;c33:w</title>
<path fill="none" stroke="black" d="M113.83,-470C175.75,-470 152.14,-394.44 207.65,-367 301.7,-320.51 339.78,-344.34 440.39,-345.92"/>
<polygon fill="black" stroke="black" points="440.62,-349.42 450.65,-346 440.68,-342.42 440.62,-349.42"/>
</g>
<!-- c34 -->
<g id="node25" class="node">
<title>c34</title>
<polygon fill="none" stroke="black" points="207.65,-376 207.65,-422 955.65,-422 955.65,-376 207.65,-376"/>
<text text-anchor="middle" x="226.15" y="-406.8" font-family="Times,serif" font-size="14.00">clk</text>
<polyline fill="none" stroke="black" points="207.65,-399 244.65,-399 "/>
<text text-anchor="middle" x="226.15" y="-383.8" font-family="Times,serif" font-size="14.00">rst</text>
<polyline fill="none" stroke="black" points="244.65,-376 244.65,-422 "/>
<text text-anchor="middle" x="562.65" y="-402.8" font-family="Times,serif" font-size="14.00">orbit_i</text>
<text text-anchor="middle" x="562.65" y="-387.8" font-family="Times,serif" font-size="14.00">$paramod╲orbit_controller╲PRESCALER=s32&#39;00000000000000000000000000000001</text>
<polyline fill="none" stroke="black" points="880.65,-376 880.65,-422 "/>
<text text-anchor="middle" x="918.15" y="-395.3" font-family="Times,serif" font-size="14.00">sunlight</text>
</g>
<!-- n3&#45;&gt;c34 -->
<g id="edge32" class="edge">
<title>n3:e&#45;&gt;c34:w</title>
<path fill="none" stroke="black" d="M113.83,-470C159.43,-470 158.79,-419.43 197.53,-411.93"/>
<polygon fill="black" stroke="black" points="198.01,-415.4 207.65,-411 197.37,-408.43 198.01,-415.4"/>
</g>
<!-- c35 -->
<g id="node26" class="node">
<title>c35</title>
<polygon fill="none" stroke="black" points="2753.84,-415 2753.84,-507 3178.84,-507 3178.84,-415 2753.84,-415"/>
<text text-anchor="middle" x="2826.84" y="-491.8" font-family="Times,serif" font-size="14.00">clk</text>
<polyline fill="none" stroke="black" points="2753.84,-484 2899.84,-484 "/>
<text text-anchor="middle" x="2826.84" y="-468.8" font-family="Times,serif" font-size="14.00">rst</text>
<polyline fill="none" stroke="black" points="2753.84,-461 2899.84,-461 "/>
<text text-anchor="middle" x="2826.84" y="-445.8" font-family="Times,serif" font-size="14.00">sunlight</text>
<polyline fill="none" stroke="black" points="2753.84,-438 2899.84,-438 "/>
<text text-anchor="middle" x="2826.84" y="-422.8" font-family="Times,serif" font-size="14.00">workload_pending</text>
<polyline fill="none" stroke="black" points="2899.84,-415 2899.84,-507 "/>
<text text-anchor="middle" x="2968.34" y="-464.8" font-family="Times,serif" font-size="14.00">power_i</text>
<text text-anchor="middle" x="2968.34" y="-449.8" font-family="Times,serif" font-size="14.00">power_controller</text>
<polyline fill="none" stroke="black" points="3036.84,-415 3036.84,-507 "/>
<text text-anchor="middle" x="3107.84" y="-480.3" font-family="Times,serif" font-size="14.00">comms_power_en</text>
<polyline fill="none" stroke="black" points="3036.84,-461 3178.84,-461 "/>
<text text-anchor="middle" x="3107.84" y="-434.3" font-family="Times,serif" font-size="14.00">fpga_power_en</text>
</g>
<!-- n3&#45;&gt;c35 -->
<g id="edge33" class="edge">
<title>n3:e&#45;&gt;c35:w</title>
<path fill="none" stroke="black" d="M113.83,-470C164.05,-470 160.19,-516.57 207.65,-533 566.48,-657.17 679.88,-597 1059.59,-597 1059.59,-597 1059.59,-597 2310.33,-597 2509.04,-597 2550.29,-499.42 2743.62,-496.09"/>
<polygon fill="black" stroke="black" points="2743.87,-499.59 2753.84,-496 2743.81,-492.59 2743.87,-499.59"/>
</g>
<!-- c39 -->
<g id="node27" class="node">
<title>c39</title>
<polygon fill="none" stroke="black" points="1862.21,-251 1862.21,-343 2145.21,-343 2145.21,-251 1862.21,-251"/>
<text text-anchor="middle" x="1897.71" y="-327.8" font-family="Times,serif" font-size="14.00">clk</text>
<polyline fill="none" stroke="black" points="1862.21,-320 1933.21,-320 "/>
<text text-anchor="middle" x="1897.71" y="-304.8" font-family="Times,serif" font-size="14.00">data_in</text>
<polyline fill="none" stroke="black" points="1862.21,-297 1933.21,-297 "/>
<text text-anchor="middle" x="1897.71" y="-281.8" font-family="Times,serif" font-size="14.00">rst</text>
<polyline fill="none" stroke="black" points="1862.21,-274 1933.21,-274 "/>
<text text-anchor="middle" x="1897.71" y="-258.8" font-family="Times,serif" font-size="14.00">valid_in</text>
<polyline fill="none" stroke="black" points="1933.21,-251 1933.21,-343 "/>
<text text-anchor="middle" x="1996.21" y="-300.8" font-family="Times,serif" font-size="14.00">rle_i</text>
<text text-anchor="middle" x="1996.21" y="-285.8" font-family="Times,serif" font-size="14.00">rle_compressor</text>
<polyline fill="none" stroke="black" points="2059.21,-251 2059.21,-343 "/>
<text text-anchor="middle" x="2102.21" y="-324.3" font-family="Times,serif" font-size="14.00">count_out</text>
<polyline fill="none" stroke="black" points="2059.21,-313 2145.21,-313 "/>
<text text-anchor="middle" x="2102.21" y="-293.8" font-family="Times,serif" font-size="14.00">valid_out</text>
<polyline fill="none" stroke="black" points="2059.21,-282 2145.21,-282 "/>
<text text-anchor="middle" x="2102.21" y="-262.8" font-family="Times,serif" font-size="14.00">value_out</text>
</g>
<!-- n3&#45;&gt;c39 -->
<g id="edge34" class="edge">
<title>n3:e&#45;&gt;c39:w</title>
<path fill="none" stroke="black" d="M113.83,-470C155.59,-470 165.91,-473.89 207.65,-475 539.98,-483.85 623.75,-494.03 955.65,-475 1033.31,-470.55 1052.38,-464.97 1129.53,-455 1300.07,-432.95 1347.83,-449.49 1512.53,-400 1529.47,-394.91 1531.62,-388.21 1548.53,-383 1657.61,-349.4 1689.74,-362.44 1802.21,-343 1824.62,-339.13 1832.18,-333.79 1850.65,-332.36"/>
<polygon fill="black" stroke="black" points="1850.85,-335.86 1860.71,-332 1850.59,-328.86 1850.85,-335.86"/>
</g>
<!-- c40 -->
<g id="node28" class="node">
<title>c40</title>
<polygon fill="none" stroke="black" points="1165.53,-166 1165.53,-258 1512.53,-258 1512.53,-166 1165.53,-166"/>
<text text-anchor="middle" x="1221.03" y="-242.8" font-family="Times,serif" font-size="14.00">clk</text>
<polyline fill="none" stroke="black" points="1165.53,-235 1276.53,-235 "/>
<text text-anchor="middle" x="1221.03" y="-219.8" font-family="Times,serif" font-size="14.00">packet_ready</text>
<polyline fill="none" stroke="black" points="1165.53,-212 1276.53,-212 "/>
<text text-anchor="middle" x="1221.03" y="-196.8" font-family="Times,serif" font-size="14.00">rst</text>
<polyline fill="none" stroke="black" points="1165.53,-189 1276.53,-189 "/>
<text text-anchor="middle" x="1221.03" y="-173.8" font-family="Times,serif" font-size="14.00">sunlight</text>
<polyline fill="none" stroke="black" points="1276.53,-166 1276.53,-258 "/>
<text text-anchor="middle" x="1325.53" y="-215.8" font-family="Times,serif" font-size="14.00">scheduler_i</text>
<text text-anchor="middle" x="1325.53" y="-200.8" font-family="Times,serif" font-size="14.00">scheduler</text>
<polyline fill="none" stroke="black" points="1374.53,-166 1374.53,-258 "/>
<text text-anchor="middle" x="1443.53" y="-231.3" font-family="Times,serif" font-size="14.00">run_compression</text>
<polyline fill="none" stroke="black" points="1374.53,-212 1512.53,-212 "/>
<text text-anchor="middle" x="1443.53" y="-185.3" font-family="Times,serif" font-size="14.00">run_filter</text>
</g>
<!-- n3&#45;&gt;c40 -->
<g id="edge35" class="edge">
<title>n3:e&#45;&gt;c40:w</title>
<path fill="none" stroke="black" d="M113.83,-470C170.29,-470 1086.63,-468.72 1129.53,-432 1190.3,-379.97 1091.42,-258.57 1155.39,-247.77"/>
<polygon fill="black" stroke="black" points="1155.82,-251.25 1165.53,-247 1155.29,-244.27 1155.82,-251.25"/>
</g>
<!-- n4 -->
<g id="node3" class="node">
<title>n4</title>
<polygon fill="none" stroke="black" points="3414.53,-480.54 3414.53,-495.46 3356.07,-506 3273.4,-506 3214.94,-495.46 3214.94,-480.54 3273.4,-470 3356.07,-470 3414.53,-480.54"/>
<text text-anchor="middle" x="3314.74" y="-484.3" font-family="Times,serif" font-size="14.00">comms_power_en</text>
</g>
<!-- n5 -->
<g id="node4" class="node">
<title>n5</title>
<polygon fill="none" stroke="black" points="2413.56,-290.54 2413.56,-305.46 2352.51,-316 2266.15,-316 2205.1,-305.46 2205.1,-290.54 2266.15,-280 2352.51,-280 2413.56,-290.54"/>
<text text-anchor="middle" x="2309.33" y="-294.3" font-family="Times,serif" font-size="14.00">compression_valid</text>
</g>
<!-- n6 -->
<g id="node5" class="node">
<title>n6</title>
<polygon fill="none" stroke="black" points="2374.27,-398.54 2374.27,-413.46 2336.23,-424 2282.43,-424 2244.39,-413.46 2244.39,-398.54 2282.43,-388 2336.23,-388 2374.27,-398.54"/>
<text text-anchor="middle" x="2309.33" y="-402.3" font-family="Times,serif" font-size="14.00">filter_valid</text>
</g>
<!-- n7 -->
<g id="node6" class="node">
<title>n7</title>
<polygon fill="none" stroke="black" points="2401.65,-454.54 2401.65,-469.46 2347.57,-480 2271.09,-480 2217.01,-469.46 2217.01,-454.54 2271.09,-444 2347.57,-444 2401.65,-454.54"/>
<text text-anchor="middle" x="2309.33" y="-458.3" font-family="Times,serif" font-size="14.00">filtered_payload</text>
</g>
<!-- n8 -->
<g id="node7" class="node">
<title>n8</title>
<polygon fill="none" stroke="black" points="1123.72,-343.54 1123.72,-358.46 1086.74,-369 1034.44,-369 997.46,-358.46 997.46,-343.54 1034.44,-333 1086.74,-333 1123.72,-343.54"/>
<text text-anchor="middle" x="1060.59" y="-347.3" font-family="Times,serif" font-size="14.00">fir_sample</text>
</g>
<!-- n9 -->
<g id="node8" class="node">
<title>n9</title>
<polygon fill="none" stroke="black" points="1112.71,-289.54 1112.71,-304.46 1082.18,-315 1039,-315 1008.47,-304.46 1008.47,-289.54 1039,-279 1082.18,-279 1112.71,-289.54"/>
<text text-anchor="middle" x="1060.59" y="-293.3" font-family="Times,serif" font-size="14.00">fir_valid</text>
</g>
<!-- n10 -->
<g id="node9" class="node">
<title>n10</title>
<polygon fill="none" stroke="black" points="3401.3,-426.54 3401.3,-441.46 3350.59,-452 3278.88,-452 3228.18,-441.46 3228.18,-426.54 3278.88,-416 3350.59,-416 3401.3,-426.54"/>
<text text-anchor="middle" x="3314.74" y="-430.3" font-family="Times,serif" font-size="14.00">fpga_power_en</text>
</g>
<!-- n11 -->
<g id="node10" class="node">
<title>n11</title>
<polygon fill="none" stroke="black" points="164,-53.54 164,-68.46 118.21,-79 53.44,-79 7.65,-68.46 7.65,-53.54 53.44,-43 118.21,-43 164,-53.54"/>
<text text-anchor="middle" x="85.83" y="-57.3" font-family="Times,serif" font-size="14.00">packet_ready</text>
</g>
<!-- c25 -->
<g id="node21" class="node">
<title>c25</title>
<polygon fill="none" stroke="black" points="2242.33,-123 2242.33,-169 2376.33,-169 2376.33,-123 2242.33,-123"/>
<text text-anchor="middle" x="2255.83" y="-153.8" font-family="Times,serif" font-size="14.00">A</text>
<polyline fill="none" stroke="black" points="2242.33,-146 2269.33,-146 "/>
<text text-anchor="middle" x="2255.83" y="-130.8" font-family="Times,serif" font-size="14.00">B</text>
<polyline fill="none" stroke="black" points="2269.33,-123 2269.33,-169 "/>
<text text-anchor="middle" x="2309.83" y="-149.8" font-family="Times,serif" font-size="14.00">$32</text>
<text text-anchor="middle" x="2309.83" y="-134.8" font-family="Times,serif" font-size="14.00">$logic_or</text>
<polyline fill="none" stroke="black" points="2350.33,-123 2350.33,-169 "/>
<text text-anchor="middle" x="2363.33" y="-142.3" font-family="Times,serif" font-size="14.00">Y</text>
</g>
<!-- n11&#45;&gt;c25 -->
<g id="edge4" class="edge">
<title>n11:e&#45;&gt;c25:w</title>
<path fill="none" stroke="black" d="M164.83,-61C183.91,-61 188.6,-59.06 207.65,-58 586.03,-36.98 680.63,-23 1059.59,-23 1059.59,-23 1059.59,-23 1676.37,-23 1898.72,-23 1953.95,-53.29 2169.21,-109 2198.46,-116.57 2205.91,-130.49 2231.15,-133.44"/>
<polygon fill="black" stroke="black" points="2231.15,-136.95 2241.33,-134 2231.54,-129.96 2231.15,-136.95"/>
</g>
<!-- n11&#45;&gt;c33 -->
<g id="edge5" class="edge">
<title>n11:e&#45;&gt;c33:w</title>
<path fill="none" stroke="black" d="M164.83,-61C241.05,-61 360.84,-258.72 440.64,-274.94"/>
<polygon fill="black" stroke="black" points="440.34,-278.43 450.65,-276 441.07,-271.47 440.34,-278.43"/>
</g>
<!-- n11&#45;&gt;c40 -->
<g id="edge6" class="edge">
<title>n11:e&#45;&gt;c40:w</title>
<path fill="none" stroke="black" d="M164.83,-61C612.03,-61 713.38,-221.54 1155.35,-223.97"/>
<polygon fill="black" stroke="black" points="1155.52,-227.47 1165.53,-224 1155.54,-220.47 1155.52,-227.47"/>
</g>
<!-- n12 -->
<g id="node11" class="node">
<title>n12</title>
<polygon fill="none" stroke="black" points="2367.61,-344.54 2367.61,-359.46 2333.47,-370 2285.19,-370 2251.05,-359.46 2251.05,-344.54 2285.19,-334 2333.47,-334 2367.61,-344.54"/>
<text text-anchor="middle" x="2309.33" y="-348.3" font-family="Times,serif" font-size="14.00">rle_count</text>
</g>
<!-- n13 -->
<g id="node12" class="node">
<title>n13</title>
<polygon fill="none" stroke="black" points="2366.3,-236.54 2366.3,-251.46 2332.93,-262 2285.73,-262 2252.36,-251.46 2252.36,-236.54 2285.73,-226 2332.93,-226 2366.3,-236.54"/>
<text text-anchor="middle" x="2309.33" y="-240.3" font-family="Times,serif" font-size="14.00">rle_value</text>
</g>
<!-- n14 -->
<g id="node13" class="node">
<title>n14</title>
<polygon fill="none" stroke="black" points="112.83,-198.54 112.83,-213.46 97.01,-224 74.64,-224 58.83,-213.46 58.83,-198.54 74.64,-188 97.01,-188 112.83,-198.54"/>
<text text-anchor="middle" x="85.83" y="-202.3" font-family="Times,serif" font-size="14.00">rst</text>
</g>
<!-- n14&#45;&gt;c30 -->
<g id="edge9" class="edge">
<title>n14:e&#45;&gt;c30:w</title>
<path fill="none" stroke="black" d="M113.83,-206C155.87,-206 165.78,-214.26 207.65,-218 539.21,-247.58 623.49,-234.2 955.65,-256 1033.01,-261.08 1052.59,-260.46 1129.53,-270 1430.38,-307.31 1523.57,-263.56 1802.21,-383 1816.86,-389.28 1818.32,-402.7 1828.43,-407.89"/>
<polygon fill="black" stroke="black" points="1827.7,-411.31 1838.21,-410 1829.18,-404.47 1827.7,-411.31"/>
</g>
<!-- n14&#45;&gt;c33 -->
<g id="edge10" class="edge">
<title>n14:e&#45;&gt;c33:w</title>
<path fill="none" stroke="black" d="M113.83,-206C159.88,-206 164.63,-233.55 207.65,-250 309.8,-289.05 336.3,-321.01 440.65,-322.91"/>
<polygon fill="black" stroke="black" points="440.62,-326.41 450.65,-323 440.68,-319.41 440.62,-326.41"/>
</g>
<!-- n14&#45;&gt;c34 -->
<g id="edge11" class="edge">
<title>n14:e&#45;&gt;c34:w</title>
<path fill="none" stroke="black" d="M113.83,-206C152.83,-206 152.56,-237.99 171.65,-272 195.92,-315.24 160.21,-376.98 197.27,-385.91"/>
<polygon fill="black" stroke="black" points="197.34,-389.44 207.65,-387 198.07,-382.47 197.34,-389.44"/>
</g>
<!-- n14&#45;&gt;c35 -->
<g id="edge12" class="edge">
<title>n14:e&#45;&gt;c35:w</title>
<path fill="none" stroke="black" d="M113.83,-206C166.39,-206 158.24,-151.92 207.65,-134 563.92,-4.84 680.63,-99 1059.59,-99 1059.59,-99 1059.59,-99 1340.03,-99 1709.75,-99 1808.33,-85.61 2169.21,-166 2185.68,-169.67 2188.89,-173.77 2205.21,-178 2296.36,-201.61 2333.48,-167.29 2413.45,-217 2436.09,-231.08 2430.18,-246.56 2449.45,-265 2565.29,-375.85 2588.99,-468.92 2743.47,-472.87"/>
<polygon fill="black" stroke="black" points="2743.8,-476.37 2753.84,-473 2743.89,-469.37 2743.8,-476.37"/>
</g>
<!-- n14&#45;&gt;c39 -->
<g id="edge13" class="edge">
<title>n14:e&#45;&gt;c39:w</title>
<path fill="none" stroke="black" d="M113.83,-206C155.72,-206 165.9,-200.47 207.65,-197 585.92,-165.54 680.01,-137 1059.59,-137 1059.59,-137 1059.59,-137 1340.03,-137 1442.86,-137 1716.84,-102.67 1802.21,-160 1849.95,-192.06 1805.69,-273.87 1850.51,-283.97"/>
<polygon fill="black" stroke="black" points="1850.41,-287.48 1860.71,-285 1851.11,-280.52 1850.41,-287.48"/>
</g>
<!-- n14&#45;&gt;c40 -->
<g id="edge14" class="edge">
<title>n14:e&#45;&gt;c40:w</title>
<path fill="none" stroke="black" d="M113.83,-206C577.83,-206 696.37,-200.09 1155.31,-200"/>
<polygon fill="black" stroke="black" points="1155.53,-203.5 1165.53,-200 1155.53,-196.5 1155.53,-203.5"/>
</g>
<!-- n15 -->
<g id="node14" class="node">
<title>n15</title>
<polygon fill="none" stroke="black" points="1675.37,-259 1548.68,-241 1675.37,-223 1802.06,-241 1675.37,-259"/>
<text text-anchor="middle" x="1675.37" y="-237.3" font-family="Times,serif" font-size="14.00">run_compression</text>
</g>
<!-- c24 -->
<g id="node20" class="node">
<title>c24</title>
<polygon fill="none" stroke="black" points="1936.71,-176 1936.71,-222 2070.71,-222 2070.71,-176 1936.71,-176"/>
<text text-anchor="middle" x="1950.21" y="-206.8" font-family="Times,serif" font-size="14.00">A</text>
<polyline fill="none" stroke="black" points="1936.71,-199 1963.71,-199 "/>
<text text-anchor="middle" x="1950.21" y="-183.8" font-family="Times,serif" font-size="14.00">B</text>
<polyline fill="none" stroke="black" points="1963.71,-176 1963.71,-222 "/>
<text text-anchor="middle" x="2004.21" y="-202.8" font-family="Times,serif" font-size="14.00">$31</text>
<text text-anchor="middle" x="2004.21" y="-187.8" font-family="Times,serif" font-size="14.00">$logic_or</text>
<polyline fill="none" stroke="black" points="2044.71,-176 2044.71,-222 "/>
<text text-anchor="middle" x="2057.71" y="-195.3" font-family="Times,serif" font-size="14.00">Y</text>
</g>
<!-- n15&#45;&gt;c24 -->
<g id="edge16" class="edge">
<title>n15:e&#45;&gt;c24:w</title>
<path fill="none" stroke="black" d="M1802.21,-241C1859.46,-241 1873.34,-214.41 1925.51,-211.3"/>
<polygon fill="black" stroke="black" points="1925.82,-214.79 1935.71,-211 1925.62,-207.79 1925.82,-214.79"/>
</g>
<!-- n15&#45;&gt;c39 -->
<g id="edge17" class="edge">
<title>n15:e&#45;&gt;c39:w</title>
<path fill="none" stroke="black" d="M1802.21,-241C1826.06,-241 1831.74,-256.65 1850.63,-260.93"/>
<polygon fill="black" stroke="black" points="1850.4,-264.43 1860.71,-262 1851.14,-257.46 1850.4,-264.43"/>
</g>
<!-- n16 -->
<g id="node15" class="node">
<title>n16</title>
<polygon fill="none" stroke="black" points="1675.37,-205 1599.29,-187 1675.37,-169 1751.45,-187 1675.37,-205"/>
<text text-anchor="middle" x="1675.37" y="-183.3" font-family="Times,serif" font-size="14.00">run_filter</text>
</g>
<!-- n16&#45;&gt;c24 -->
<g id="edge19" class="edge">
<title>n16:e&#45;&gt;c24:w</title>
<path fill="none" stroke="black" d="M1752.37,-187C1830.35,-187 1852.36,-187 1925.54,-187"/>
<polygon fill="black" stroke="black" points="1925.71,-190.5 1935.71,-187 1925.71,-183.5 1925.71,-190.5"/>
</g>
<!-- n16&#45;&gt;c30 -->
<g id="edge20" class="edge">
<title>n16:e&#45;&gt;c30:w</title>
<path fill="none" stroke="black" d="M1752.37,-187C1777.56,-187 1787.17,-193.79 1802.21,-214 1846.81,-273.93 1768.08,-376.37 1827.87,-386.23"/>
<polygon fill="black" stroke="black" points="1827.98,-389.75 1838.21,-387 1828.5,-382.77 1827.98,-389.75"/>
</g>
<!-- n17 -->
<g id="node16" class="node">
<title>n17</title>
<polygon fill="none" stroke="black" points="171.48,-291.54 171.48,-306.46 121.3,-317 50.35,-317 0.17,-306.46 0.17,-291.54 50.35,-281 121.3,-281 171.48,-291.54"/>
<text text-anchor="middle" x="85.83" y="-295.3" font-family="Times,serif" font-size="14.00">sensor_sample</text>
</g>
<!-- n17&#45;&gt;c33 -->
<g id="edge21" class="edge">
<title>n17:e&#45;&gt;c33:w</title>
<path fill="none" stroke="black" stroke-width="3" d="M171.65,-299C292.14,-299 324.82,-299 440.34,-299"/>
<polygon fill="black" stroke="black" stroke-width="3" points="440.65,-302.5 450.65,-299 440.65,-295.5 440.65,-302.5"/>
</g>
<!-- n18 -->
<g id="node17" class="node">
<title>n18</title>
<polygon fill="none" stroke="black" points="1060.59,-423 991.72,-405 1060.59,-387 1129.46,-405 1060.59,-423"/>
<text text-anchor="middle" x="1060.59" y="-401.3" font-family="Times,serif" font-size="14.00">sunlight</text>
</g>
<!-- n18&#45;&gt;c35 -->
<g id="edge23" class="edge">
<title>n18:e&#45;&gt;c35:w</title>
<path fill="none" stroke="black" d="M1129.53,-405C1325.18,-405 1355.25,-509.63 1548.53,-540 1659.91,-557.5 1689.56,-544.69 1802.21,-540 2074.58,-528.66 2142.21,-516.24 2413.45,-489 2561.61,-474.12 2599.82,-450.11 2743.75,-449.04"/>
<polygon fill="black" stroke="black" points="2743.85,-452.54 2753.84,-449 2743.83,-445.54 2743.85,-452.54"/>
</g>
<!-- n18&#45;&gt;c40 -->
<g id="edge24" class="edge">
<title>n18:e&#45;&gt;c40:w</title>
<path fill="none" stroke="black" d="M1129.53,-405C1228.31,-405 1075.12,-193.61 1155.2,-177.92"/>
<polygon fill="black" stroke="black" points="1155.88,-181.37 1165.53,-177 1155.25,-174.4 1155.88,-181.37"/>
</g>
<!-- n19 -->
<g id="node18" class="node">
<title>n19</title>
<polygon fill="none" stroke="black" points="1426.9,-365.54 1426.9,-380.46 1375.42,-391 1302.63,-391 1251.15,-380.46 1251.15,-365.54 1302.63,-355 1375.42,-355 1426.9,-365.54"/>
<text text-anchor="middle" x="1339.03" y="-369.3" font-family="Times,serif" font-size="14.00">telemetry_byte</text>
</g>
<!-- x0 -->
<g id="node23" class="node">
<title>x0</title>
<path fill="none" stroke="black" d="M1645.87,-392C1645.87,-392 1704.87,-392 1704.87,-392 1710.87,-392 1716.87,-398 1716.87,-404 1716.87,-404 1716.87,-426 1716.87,-426 1716.87,-432 1710.87,-438 1704.87,-438 1704.87,-438 1645.87,-438 1645.87,-438 1639.87,-438 1633.87,-432 1633.87,-426 1633.87,-426 1633.87,-404 1633.87,-404 1633.87,-398 1639.87,-392 1645.87,-392"/>
<text text-anchor="middle" x="1675.37" y="-422.8" font-family="Times,serif" font-size="14.00">0 &#45;&gt; 63:8</text>
<polyline fill="none" stroke="black" points="1633.87,-415 1716.87,-415 "/>
<text text-anchor="middle" x="1675.37" y="-399.8" font-family="Times,serif" font-size="14.00">7:0 &#45; 7:0</text>
</g>
<!-- n19&#45;&gt;x0 -->
<g id="edge26" class="edge">
<title>n19:e&#45;&gt;x0:w</title>
<path fill="none" stroke="black" stroke-width="3" d="M1428.03,-373C1516.32,-373 1538.89,-400.76 1622.18,-402.87"/>
<polygon fill="black" stroke="black" stroke-width="3" points="1622.33,-406.37 1632.37,-403 1622.41,-399.38 1622.33,-406.37"/>
</g>
<!-- n19&#45;&gt;c39 -->
<g id="edge25" class="edge">
<title>n19:e&#45;&gt;c39:w</title>
<path fill="none" stroke="black" stroke-width="3" d="M1428.03,-373C1482.63,-373 1494.63,-357.81 1548.53,-349 1683.21,-326.99 1719.09,-309.85 1850.65,-309.03"/>
<polygon fill="black" stroke="black" stroke-width="3" points="1850.72,-312.53 1860.71,-309 1850.7,-305.53 1850.72,-312.53"/>
</g>
<!-- n20 -->
<g id="node19" class="node">
<title>n20</title>
<polygon fill="none" stroke="black" points="2583.64,-256 2449.25,-238 2583.64,-220 2718.04,-238 2583.64,-256"/>
<text text-anchor="middle" x="2583.64" y="-234.3" font-family="Times,serif" font-size="14.00">workload_pending</text>
</g>
<!-- n20&#45;&gt;c35 -->
<g id="edge29" class="edge">
<title>n20:e&#45;&gt;c35:w</title>
<path fill="none" stroke="black" d="M2717.84,-238C2799.09,-238 2680.38,-409.49 2743.66,-424.9"/>
<polygon fill="black" stroke="black" points="2743.52,-428.4 2753.84,-426 2744.28,-421.44 2743.52,-428.4"/>
</g>
<!-- c24&#45;&gt;c25 -->
<g id="edge2" class="edge">
<title>c24:e&#45;&gt;c25:w</title>
<path fill="none" stroke="black" d="M2071.71,-199C2145.79,-199 2162.34,-161.6 2231.25,-158.24"/>
<polygon fill="black" stroke="black" points="2231.42,-161.74 2241.33,-158 2231.25,-154.74 2231.42,-161.74"/>
</g>
<!-- c25&#45;&gt;n20 -->
<g id="edge28" class="edge">
<title>c25:e&#45;&gt;n20:w</title>
<path fill="none" stroke="black" d="M2377.33,-146C2400.63,-146 2398.9,-165.79 2413.45,-184 2428.92,-203.37 2423.08,-229.33 2439.44,-236.25"/>
<polygon fill="black" stroke="black" points="2438.99,-239.72 2449.45,-238 2440.2,-232.83 2438.99,-239.72"/>
</g>
<!-- c30&#45;&gt;n6 -->
<g id="edge38" class="edge">
<title>c30:e&#45;&gt;n6:w</title>
<path fill="none" stroke="black" d="M2169.21,-404C2198.43,-404 2208.2,-405.57 2233.01,-405.93"/>
<polygon fill="black" stroke="black" points="2233.31,-409.43 2243.33,-406 2233.35,-402.43 2233.31,-409.43"/>
</g>
<!-- c30&#45;&gt;n7 -->
<g id="edge39" class="edge">
<title>c30:e&#45;&gt;n7:w</title>
<path fill="none" stroke="black" stroke-width="3" d="M2169.21,-462C2185.87,-462 2192.37,-462 2205.22,-462"/>
<polygon fill="black" stroke="black" stroke-width="3" points="2205.33,-465.5 2215.33,-462 2205.33,-458.5 2205.33,-465.5"/>
</g>
<!-- x0&#45;&gt;c30 -->
<g id="edge1" class="edge">
<title>x0:e&#45;&gt;c30:w</title>
<path fill="none" stroke="black" stroke-width="3" d="M1730.55,-415.33C1770.67,-417.56 1786,-430.48 1826.18,-432.68"/>
<polygon fill="none" stroke="black" stroke-width="3" points="1730.37,-415.32 1724.26,-419.16 1718.37,-415 1724.47,-411.16 1730.37,-415.32"/>
<polygon fill="none" stroke="black" stroke-width="3" points="1826.22,-432.68 1832.32,-428.84 1838.21,-433 1832.11,-436.84 1826.22,-432.68"/>
</g>
<!-- c33&#45;&gt;n8 -->
<g id="edge40" class="edge">
<title>c33:e&#45;&gt;n8:w</title>
<path fill="none" stroke="black" stroke-width="3" d="M712.65,-334C835.62,-334 868.4,-350.08 986.43,-350.96"/>
<polygon fill="black" stroke="black" stroke-width="3" points="986.58,-354.46 996.59,-351 986.6,-347.46 986.58,-354.46"/>
</g>
<!-- c33&#45;&gt;n9 -->
<g id="edge41" class="edge">
<title>c33:e&#45;&gt;n9:w</title>
<path fill="none" stroke="black" d="M712.65,-288C840.34,-288 874.65,-296.53 997.42,-296.98"/>
<polygon fill="black" stroke="black" points="997.58,-300.48 1007.59,-297 997.6,-293.48 997.58,-300.48"/>
</g>
<!-- c34&#45;&gt;n18 -->
<g id="edge22" class="edge">
<title>c34:e&#45;&gt;n18:w</title>
<path fill="none" stroke="black" d="M955.65,-399C967.82,-399 972.86,-402.38 981.47,-404.06"/>
<polygon fill="black" stroke="black" points="981.37,-407.57 991.65,-405 982.02,-400.6 981.37,-407.57"/>
</g>
<!-- c35&#45;&gt;n4 -->
<g id="edge36" class="edge">
<title>c35:e&#45;&gt;n4:w</title>
<path fill="none" stroke="black" d="M3178.84,-484C3190.91,-484 3196.07,-486.25 3204.69,-487.38"/>
<polygon fill="black" stroke="black" points="3204.64,-490.88 3214.84,-488 3205.07,-483.89 3204.64,-490.88"/>
</g>
<!-- c35&#45;&gt;n10 -->
<g id="edge3" class="edge">
<title>c35:e&#45;&gt;n10:w</title>
<path fill="none" stroke="black" d="M3178.84,-438C3196.36,-438 3202.99,-435.31 3216.6,-434.34"/>
<polygon fill="black" stroke="black" points="3216.86,-437.83 3226.74,-434 3216.62,-430.84 3216.86,-437.83"/>
</g>
<!-- c39&#45;&gt;n5 -->
<g id="edge37" class="edge">
<title>c39:e&#45;&gt;n5:w</title>
<path fill="none" stroke="black" d="M2146.71,-298C2168.85,-298 2176.85,-298 2194.8,-298"/>
<polygon fill="black" stroke="black" points="2195.21,-301.5 2205.21,-298 2195.21,-294.5 2195.21,-301.5"/>
</g>
<!-- c39&#45;&gt;n12 -->
<g id="edge7" class="edge">
<title>c39:e&#45;&gt;n12:w</title>
<path fill="none" stroke="black" stroke-width="3" d="M2146.71,-328C2190.29,-328 2201.41,-348.4 2239.91,-351.58"/>
<polygon fill="black" stroke="black" stroke-width="3" points="2240.2,-355.1 2250.33,-352 2240.48,-348.1 2240.2,-355.1"/>
</g>
<!-- c39&#45;&gt;n13 -->
<g id="edge8" class="edge">
<title>c39:e&#45;&gt;n13:w</title>
<path fill="none" stroke="black" stroke-width="3" d="M2146.71,-266C2190.51,-266 2202.09,-247.3 2240.85,-244.38"/>
<polygon fill="black" stroke="black" stroke-width="3" points="2241.46,-247.86 2251.33,-244 2241.21,-240.87 2241.46,-247.86"/>
</g>
<!-- c40&#45;&gt;n15 -->
<g id="edge15" class="edge">
<title>c40:e&#45;&gt;n15:w</title>
<path fill="none" stroke="black" d="M1512.53,-235C1524.69,-235 1529.73,-238.38 1538.34,-240.06"/>
<polygon fill="black" stroke="black" points="1538.25,-243.57 1548.53,-241 1538.89,-236.6 1538.25,-243.57"/>
</g>
<!-- c40&#45;&gt;n16 -->
<g id="edge18" class="edge">
<title>c40:e&#45;&gt;n16:w</title>
<path fill="none" stroke="black" d="M1512.53,-189C1547.11,-189 1558.17,-187.36 1588.34,-187.05"/>
<polygon fill="black" stroke="black" points="1588.39,-190.55 1598.37,-187 1588.35,-183.55 1588.39,-190.55"/>
</g>
</g>
</svg>
